<svg width="24" height="24" viewBox="0 0 24 24" fill="none" xmlns="http://www.w3.org/2000/svg">
<path d="M21.7068 12.7071L14.7068 19.7071C14.5118 19.9021 14.2559 20 13.9999 20C13.7439 20 13.4879 19.9021 13.2929 19.7071C12.9019 19.3161 12.9019 18.684 13.2929 18.293L18.5859 13H2.99988C2.44688 13 1.99988 12.553 1.99988 12C1.99988 11.447 2.44688 11 2.99988 11H18.5859L13.2929 5.70707C12.9019 5.31607 12.9019 4.68401 13.2929 4.29301C13.6839 3.90201 14.3158 3.90201 14.7068 4.29301L21.7068 11.293C22.0978 11.684 22.0978 12.3161 21.7068 12.7071Z" fill="#ffffff"/>
</svg>
