<svg width="24" height="24" viewBox="0 0 24 24" fill="none" xmlns="http://www.w3.org/2000/svg">
<path d="M17.3416 9.48369C17.2016 9.2031 17.2016 8.86838 17.3416 8.58678L19.8946 3.47106C20.0496 3.16041 20.0326 2.79161 19.8506 2.49599C19.6686 2.20137 19.3466 2.021 18.9996 2.021H8.99963C6.24263 2.021 3.99963 4.26872 3.99963 7.03152V21.0189C3.99963 21.5731 4.44763 22.021 4.99963 22.021C5.55163 22.021 5.99963 21.5731 5.99963 21.0189V16.0505H18.9996C19.3466 16.0505 19.6676 15.8701 19.8506 15.5745C20.0336 15.2789 20.0496 14.9101 19.8946 14.5994L17.3416 9.48369ZM5.99963 14.0462V7.03152C5.99963 5.37404 7.34563 4.0252 8.99963 4.0252H17.3816L15.5526 7.69086C15.1326 8.53263 15.1326 9.53882 15.5526 10.3806L17.3816 14.0462H5.99963Z" fill="#ffffff"/>
</svg>
