<svg xmlns:svg="http://www.w3.org/2000/svg" xmlns="http://www.w3.org/2000/svg" version="1.1" x="0px" y="0px" width="44" height="57" viewBox="0 0 44 57" xml:space="preserve" fill="none" style="stroke: #ffffff;
stroke-width: 4;
stroke-dasharray: 0;">
	<g transform="translate(-393.59558,-302.84335)">
		<path d="m 420.69558,314.34335 c 0,0.7 -0.5,1.2 -1.2,1.2 l -9.7,0 c -0.7,0 -1.2,-0.5 -1.2,-1.2 l 0,-9.7 c 0,-0.7 0.5,-1.2 1.2,-1.2 l 9.7,0 c 0.7,0 1.2,0.5 1.2,1.2 l 0,9.7 z" />
		<path d="m 435.19558,314.34335 c 0,0.7 -0.5,1.2 -1.2,1.2 l -9.7,0 c -0.7,0 -1.2,-0.5 -1.2,-1.2 l 0,-9.7 c 0,-0.7 0.5,-1.2 1.2,-1.2 l 9.7,0 c 0.7,0 1.2,0.5 1.2,1.2 l 0,9.7 z" />
		<path d="m 435.19558,343.24335 c 0,0.7 -0.5,1.2 -1.2,1.2 l -9.7,0 c -0.7,0 -1.2,-0.5 -1.2,-1.2 l 0,-9.7 c 0,-0.7 0.5,-1.2 1.2,-1.2 l 9.7,0 c 0.7,0 1.2,0.5 1.2,1.2 l 0,9.7 z" />
		<path d="m 406.19558,328.74335 c 0,0.7 -0.5,1.2 -1.2,1.2 l -9.7,0 c -0.7,0 -1.2,-0.5 -1.2,-1.2 l 0,-9.7 c 0,-0.7 0.5,-1.2 1.2,-1.2 l 9.7,0 c 0.7,0 1.2,0.5 1.2,1.2 l 0,9.7 z" />
		<path d="m 420.69558,328.74335 c 0,0.7 -0.5,1.2 -1.2,1.2 l -9.7,0 c -0.7,0 -1.2,-0.5 -1.2,-1.2 l 0,-9.7 c 0,-0.7 0.5,-1.2 1.2,-1.2 l 9.7,0 c 0.7,0 1.2,0.5 1.2,1.2 l 0,9.7 z" />
		<path d="m 406.19558,343.24335 c 0,0.7 -0.5,1.2 -1.2,1.2 l -9.7,0 c -0.7,0 -1.2,-0.5 -1.2,-1.2 l 0,-9.7 c 0,-0.7 0.5,-1.2 1.2,-1.2 l 9.7,0 c 0.7,0 1.2,0.5 1.2,1.2 l 0,9.7 z" />
		<path d="m 420.69558,343.24335 c 0,0.7 -0.5,1.2 -1.2,1.2 l -9.7,0 c -0.7,0 -1.2,-0.5 -1.2,-1.2 l 0,-9.7 c 0,-0.7 0.5,-1.2 1.2,-1.2 l 9.7,0 c 0.7,0 1.2,0.5 1.2,1.2 l 0,9.7 z" />
		<path d="m 406.19558,357.74335 c 0,0.7 -0.5,1.2 -1.2,1.2 l -9.7,0 c -0.7,0 -1.2,-0.5 -1.2,-1.2 l 0,-9.7 c 0,-0.7 0.5,-1.2 1.2,-1.2 l 9.7,0 c 0.7,0 1.2,0.5 1.2,1.2 l 0,9.7 z" />
		<path d="m 420.69558,357.74335 c 0,0.7 -0.5,1.2 -1.2,1.2 l -9.7,0 c -0.7,0 -1.2,-0.5 -1.2,-1.2 l 0,-9.7 c 0,-0.7 0.5,-1.2 1.2,-1.2 l 9.7,0 c 0.7,0 1.2,0.5 1.2,1.2 l 0,9.7 z" />
		<path d="m 406.79558,309.44335 c 0,3.6 -3,6.6 -6.6,6.6 -3.6,0 -6.6,-3 -6.6,-6.6 0,-3.6 3,-6.6 6.6,-6.6 3.7,0 6.6,3 6.6,6.6" />
	</g>
</svg>
